Coordinates
version=1
nRows=14
nColumns=38
inDegrees=no

Units are S.I. units (second, meters, Newtons, ...)
If the header above contains a line with 'inDegrees', this indicates whether rotational values are in degrees (yes) or radians (no).

endheader
time	pelvis_tilt	pelvis_list	pelvis_rotation	pelvis_tx	pelvis_ty	pelvis_tz	hip_flexion_r	hip_adduction_r	hip_rotation_r	knee_angle_r	ankle_angle_r	subtalar_angle_r	mtp_angle_r	hip_flexion_l	hip_adduction_l	hip_rotation_l	knee_angle_l	ankle_angle_l	subtalar_angle_l	mtp_angle_l	lumbar_extension	lumbar_bending	lumbar_rotation	arm_flex_r	arm_add_r	arm_rot_r	elbow_flex_r	pro_sup_r	wrist_flex_r	wrist_dev_r	arm_flex_l	arm_add_l	arm_rot_l	elbow_flex_l	pro_sup_l	wrist_flex_l	wrist_dev_l
4.9	2.40861	1.44074	-0.7732	0.706997	1.17941	0.919002	0.286967	0.0655179	-0.337879	0.383733	-0.0820087	0	0	-0.256789	-0.208788	-0.307001	0.613946	0.0382914	0	0	-0.290003	0.0816931	-0.0374814	0.940659	-0.347501	0.559541	1.06021	1.5708	0	0	0.773543	-0.195313	0.121023	1.23784	1.05214	0	0
4.91	2.34902	1.43864	-0.715848	0.709527	1.18916	0.919291	0.277405	0.0792286	-0.337543	0.377636	-0.0753002	0	0	-0.222038	-0.234908	-0.305843	0.676379	-0.00979266	0	0	-0.281357	0.0871454	-0.0315325	0.933685	-0.346925	0.561512	1.06305	1.5708	0	0	0.768827	-0.19741	0.121959	1.23514	1.04954	0	0
4.92	2.29592	1.4348	-0.665063	0.711879	1.1987	0.919637	0.26746	0.0931715	-0.335706	0.372876	-0.0689473	0	0	-0.187653	-0.260056	-0.299737	0.736879	-0.0614402	0	0	-0.274381	0.0937415	-0.0251752	0.928902	-0.346989	0.565888	1.06461	1.5708	0	0	0.765463	-0.198584	0.122933	1.23045	1.04689	0	0
4.93	2.25741	1.42988	-0.629074	0.714096	1.20802	0.920112	0.256904	0.105984	-0.332224	0.370653	-0.0618809	0	0	-0.15464	-0.282903	-0.289987	0.79454	-0.114699	0	0	-0.269678	0.100164	-0.0186502	0.925803	-0.347272	0.571714	1.06515	1.5708	0	0	0.763261	-0.199219	0.12331	1.22451	1.04338	0	0
4.94	2.23183	1.42442	-0.605624	0.716211	1.21718	0.920707	0.245406	0.117625	-0.32777	0.369707	-0.0538133	0	0	-0.121927	-0.304131	-0.277975	0.850514	-0.172563	0	0	-0.266852	0.106074	-0.0126676	0.923666	-0.347665	0.577959	1.0652	1.5708	0	0	0.762308	-0.19953	0.119193	1.21697	0.976265	0	0
4.95	2.22588	1.41943	-0.602154	0.718179	1.22614	0.921527	0.232216	0.126715	-0.322124	0.369696	-0.0450494	0	0	-0.0919868	-0.320441	-0.26171	0.902157	-0.229495	0	0	-0.266704	0.109796	-0.00660532	0.922056	-0.348206	0.583028	1.06516	1.5708	0	0	0.761985	-0.200048	0.119827	1.21098	0.967244	0	0
4.96	2.23535	1.41499	-0.614405	0.720041	1.23495	0.922571	0.217022	0.133635	-0.315725	0.369169	-0.0368714	0	0	-0.0647804	-0.332023	-0.242553	0.949532	-0.28092	0	0	-0.268777	0.111445	-0.000393222	0.920338	-0.348729	0.586718	1.06514	1.5708	0	0	0.761828	-0.200553	0.125729	1.20684	1.03234	0	0
4.97	2.24848	1.4112	-0.630474	0.721869	1.24369	0.923718	0.200987	0.139512	-0.309544	0.367342	-0.0297995	0	0	-0.0384693	-0.340732	-0.226082	0.992905	-0.321505	0	0	-0.271121	0.112028	0.00556073	0.918277	-0.348834	0.59003	1.06458	1.5708	0	0	0.762124	-0.200794	0.127281	1.20059	1.0305	0	0
4.98	2.26323	1.4083	-0.648691	0.72366	1.25238	0.924919	0.185188	0.144024	-0.30463	0.365669	-0.0234204	0	0	-0.0137489	-0.346205	-0.212015	1.03115	-0.341682	0	0	-0.273245	0.111697	0.0113026	0.917682	-0.349814	0.600123	1.06303	1.5708	0	0	0.762468	-0.200361	0.118956	1.19121	0.907842	0	0
4.99	2.28695	1.40482	-0.675363	0.725403	1.26104	0.926369	0.165545	0.148655	-0.299139	0.359524	-0.019141	0	0	0.00746028	-0.349489	-0.199114	1.0635	-0.346279	0	0	-0.277175	0.110034	0.0171309	0.912383	-0.34807	0.596498	1.06237	1.5708	0	0	0.762111	-0.201047	0.129989	1.1875	1.0232	0	0
5	2.31125	1.40272	-0.702701	0.727055	1.26955	0.927838	0.146691	0.151479	-0.294055	0.353143	-0.0143342	0	0	0.0290348	-0.350287	-0.187209	1.09284	-0.337065	0	0	-0.280515	0.107192	0.0220695	0.908769	-0.346696	0.596905	1.06057	1.5708	0	0	0.76205	-0.201421	0.131287	1.18164	1.02422	0	0
5.01	2.33836	1.40144	-0.732817	0.728722	1.27792	0.929405	0.127297	0.153387	-0.289053	0.345127	-0.00999146	0	0	0.0506502	-0.349686	-0.176196	1.12044	-0.314087	0	0	-0.283908	0.103014	0.0264632	0.904954	-0.344219	0.595041	1.05801	1.5708	0	0	0.762138	-0.202344	0.133086	1.17664	1.02575	0	0
5.02	2.36706	1.40072	-0.764785	0.730493	1.28616	0.931031	0.107484	0.155051	-0.28295	0.335831	-0.00768762	0	0	0.0716701	-0.34878	-0.167608	1.14512	-0.284629	0	0	-0.2872	0.0977992	0.0307507	0.901152	-0.340834	0.592437	1.05493	1.5708	0	0	0.762772	-0.203103	0.131113	1.17049	0.973625	0	0
5.03	2.39725	1.39939	-0.798017	0.73223	1.29429	0.932739	0.0856234	0.157306	-0.275247	0.323407	-0.00801037	0	0	0.090672	-0.348215	-0.162375	1.16436	-0.255855	0	0	-0.291091	0.0925987	0.0349043	0.897451	-0.33699	0.588892	1.05114	1.5708	0	0	0.763575	-0.204366	0.138419	1.16542	1.03048	0	0
